inDegrees=yes
name=ik_S46_A03_T02
DataType=double
version=3
OpenSimVersion=4.3-2021-08-27-4bc7ad9
endheader
time	pelvis_tilt	pelvis_list	pelvis_rotation	pelvis_tx	pelvis_ty	pelvis_tz	hip_flexion_r	hip_adduction_r	hip_rotation_r	knee_angle_r	knee_angle_r_beta	ankle_angle_r	subtalar_angle_r	mtp_angle_r	hip_flexion_l	hip_adduction_l	hip_rotation_l	knee_angle_l	knee_angle_l_beta	ankle_angle_l	subtalar_angle_l	mtp_angle_l	lumbar_extension	lumbar_bending	lumbar_rotation	arm_flex_r	arm_add_r	arm_rot_r	elbow_flex_r	pro_sup_r	wrist_flex_r	wrist_dev_r	arm_flex_l	arm_add_l	arm_rot_l	elbow_flex_l	pro_sup_l	wrist_flex_l	wrist_dev_l
17.59999999999971	6.113409579078113	-2.001082944460377	92.85400152757913	0	0.9399999999999999	0	0.9134404518724691	-3.03448841848671	-8.719157155726322	-3.227229666944318	-0.05632578340621835	0	0	0	-7.223874749260487	-4.639616172691504	-9.634071054134294	-8.782021956976443	-0.1532751981316747	0	0	0	0	0	0	40.70690798484996	-40.70690798484996	4.914160711681169	83.79784943093212	85.08583955917703	0	0	40.70690798484996	-40.70690798484996	4.914160711681169	83.79784943093212	85.08583955916097	0	0
17.61999999999971	5.957989776930893	-1.847557556869414	93.01408734326864	0	0.9399999999999999	0	0.07802445920392727	-2.530538388954072	-7.972257363107448	-3.763116406163186	-0.06567877142336383	0	0	0	-7.736815519033052	-4.256245840149675	-8.895947763053586	-8.90677768209898	-0.155452596295776	0	0	0	0	0	0	40.7079263553702	-40.7079263553702	4.91420158281456	83.79842190814209	85.08579868804541	0	0	40.7079263553702	-40.7079263553702	4.91420158281456	83.79842190814209	85.08579868802936	0	0
17.63999999999971	5.605635780331653	-1.381883952154383	93.05422840748417	0	0.9399999999999999	0	-1.224034913021181	-2.395990759741245	-7.158626898738129	-4.78436806787871	-0.08350297541176305	0	0	0	-8.636282835795807	-4.035471524068041	-6.931676752643028	-9.449980908052009	-0.1649332810961111	0	0	0	0	0	0	40.70953470411922	-40.70953470411922	4.914266205946018	83.799327077146	85.08573406491681	0	0	40.70953470411922	-40.70953470411922	4.914266205946018	83.799327077146	85.08573406490082	0	0
17.65999999999971	4.974969949909075	-0.7228533981415349	93.29245830667034	0	0.9399999999999999	0	-2.440913304673998	-2.595436752563733	-6.490651963979123	-5.463381598775159	-0.09535399719149833	0	0	0	-8.999305884183954	-3.689217856102285	-5.180160245708358	-8.928271042797988	-0.1558277262072925	0	0	0	0	0	0	40.71082340663864	-40.71082340663864	4.91431771611457	83.80004857245179	85.08568255475048	0	0	40.71082340663864	-40.71082340663864	4.91431771611457	83.80004857245179	85.0856825547345	0	0
17.67999999999971	4.388793547351329	-0.03666249337030861	93.59063448946586	0	0.9399999999999999	0	-3.459492333536026	-2.894546028435265	-6.151700828304394	-6.014919816986215	-0.1049801550498642	0	0	0	-10.19584146465034	-2.720772331514367	-5.133415637650772	-9.350829555718549	-0.1632027635400873	0	0	0	0	0	0	40.712239109097	-40.712239109097	4.914374681627945	83.80084648239914	85.08562558923958	0	0	40.712239109097	-40.712239109097	4.914374681627945	83.80084648239914	85.08562558922365	0	0
17.69999999999971	4.151046702009989	0.7097772496242736	93.62045981192875	0	0.9399999999999999	0	-4.360004790683302	-3.451333524193758	-6.272056973795267	-6.080607987514007	-0.1061266299051857	0	0	0	-11.14274558643707	-1.903836560893414	-4.5855962929079	-9.656866559251522	-0.1685441168846751	0	0	0	0	0	0	40.71271375087957	-40.71271375087957	4.914393671403723	83.80111246947202	85.08560659946467	0	0	40.71271375087957	-40.71271375087957	4.914393671403723	83.80111246947202	85.08560659944872	0	0
17.71999999999971	4.164891515598675	1.052018614271163	93.58206069842842	0	0.9399999999999999	0	-4.515420593693575	-3.791636820887426	-5.844254538536375	-5.860441164760201	-0.102283993944477	0	0	0	-11.69893864828908	-2.442553176488973	-3.466308081809473	-9.734937088362619	-0.1699067046664379	0	0	0	0	0	0	40.71359233392216	-40.71359233392216	4.91442889345312	83.80160581997454	85.08557137741681	0	0	40.71359233392216	-40.71359233392216	4.91442889345312	83.80160581997454	85.08557137740087	0	0
17.73999999999971	4.370703428775869	1.572657809610331	93.43815325441301	0	0.9399999999999999	0	-4.976706692281543	-3.599576776323065	-5.553346547962333	-5.491973125619761	-0.09585301347310897	0	0	0	-12.18091547705755	-2.935461441357506	-2.625743735271822	-9.502418119132216	-0.165848483080024	0	0	0	0	0	0	40.71450940386893	-40.71450940386893	4.91446566207647	83.80212083309844	85.08553460879506	0	0	40.71450940386893	-40.71450940386893	4.91446566207647	83.80212083309844	85.08553460877911	0	0
17.75999999999971	4.737160212698608	1.661792593264216	93.03747373379592	0	0.9399999999999999	0	-4.487895678943522	-3.344067525341947	-4.859800567878037	-4.851331739071402	-0.08467171195329841	0	0	0	-11.91333950501915	-3.661746933391836	-2.447753192856943	-8.941578012810973	-0.1560599766474832	0	0	0	0	0	0	40.715526283419	-40.715526283419	4.914506469059978	83.80269241129963	85.08549380181333	0	0	40.715526283419	-40.715526283419	4.914506469059978	83.80269241129963	85.08549380179738	0	0
17.77999999999971	5.037991328196555	1.533454156155515	92.49032976165256	0	0.9399999999999999	0	-3.863198331581153	-3.106702789658523	-4.785962974143956	-4.243695983295275	-0.07406646736216084	0	0	0	-11.54774375959078	-4.043933021971589	-3.65144658528675	-8.381784765243712	-0.1462897413470027	0	0	0	0	0	0	40.71670997549683	-40.71670997549683	4.914553714623654	83.80335417206291	85.0854465562518	0	0	40.71670997549683	-40.71670997549683	4.914553714623654	83.80335417206291	85.08544655623585	0	0
17.79999999999971	5.092907567191285	1.438845544763596	92.11253469752614	0	0.9399999999999999	0	-3.504805297350944	-3.128428511586472	-5.576948756949504	-3.671965839687659	-0.06408789392330792	0	0	0	-11.4673972816646	-3.94880847722743	-5.489479638014148	-8.341393597333635	-0.145584782478246	0	0	0	0	0	0	40.71836260222295	-40.71836260222295	4.914619298854378	83.80427279666085	85.08538097202386	0	0	40.71836260222295	-40.71836260222295	4.914619298854378	83.80427279666085	85.08538097200793	0	0
17.81999999999971	4.851482741904785	1.687749149113496	92.11978545119705	0	0.9399999999999999	0	-3.841686683070228	-3.538903231093165	-7.355008491240372	-3.42571119486479	-0.05978993957281965	0	0	0	-11.86055689423627	-3.536497470342038	-6.959019247893552	-8.541393456577573	-0.149075438525578	0	0	0	0	0	0	40.7303412838306	-40.7303412838306	4.915061487588859	83.81046628486106	85.08493878330853	0	0	40.7303412838306	-40.7303412838306	4.915061487588859	83.81046628486106	85.08493878329266	0	0
17.83999999999971	4.710431604885049	1.98542796301585	92.36747716382141	0	0.9399999999999999	0	-4.274999069181053	-3.814073247462658	-8.412180825326494	-3.391850484755048	-0.05919895869434132	0	0	0	-12.18166948075499	-3.343002032244712	-7.043207622095881	-8.55540825090975	-0.1493200428306643	0	0	0	0	0	0	40.7311511766241	-40.7311511766241	4.915093666606149	83.81091700942869	85.08490660429267	0	0	40.7311511766241	-40.7311511766241	4.915093666606149	83.81091700942869	85.08490660427678	0	0
17.85999999999971	4.660949219926461	2.126705081927854	92.46186536797602	0	0.9399999999999999	0	-4.439455645387248	-3.82314357050798	-8.000110258493475	-3.389589646474398	-0.05915949962248886	0	0	0	-12.23593183661034	-3.291458579210513	-5.866973040957563	-8.443134859722065	-0.1473605024920596	0	0	0	0	0	0	40.73186927555241	-40.73186927555241	4.915122249027565	83.81131735752804	85.0848780218725	0	0	40.73186927555241	-40.73186927555241	4.915122249027565	83.81131735752804	85.08487802185664	0	0
17.87999999999971	4.550185869429817	2.516768764149236	92.63623421638205	0	0.9399999999999999	0	-4.83493845532753	-3.870751178449791	-7.682285166986835	-3.462467445744926	-0.06043145717136708	0	0	0	-12.55276000951564	-3.42091151332535	-4.26137735896418	-8.24333997950411	-0.1438734240036286	0	0	0	0	0	0	40.73277533505465	-40.73277533505465	4.915158402349457	83.81182375018193	85.08484186855218	0	0	40.73277533505465	-40.73277533505465	4.915158402349457	83.81182375018193	85.08484186853633	0	0
17.89999999999971	4.513671929553854	3.0305995525955	92.56066182953556	0	0.9399999999999999	0	-5.266271790263277	-3.86485960250278	-7.236428672256301	-3.21918627580825	-0.05618539974786824	0	0	0	-13.0029847604551	-3.478678149219111	-3.499922042125362	-8.231446576604547	-0.143665844963765	0	0	0	0	0	0	40.73362902005604	-40.73362902005604	4.915192436015608	83.81230045301366	85.08480783488753	0	0	40.73362902005604	-40.73362902005604	4.915192436015608	83.81230045301366	85.08480783487167	0	0
17.91999999999971	4.525555134867378	3.473555289631235	92.35818297458452	0	0.9399999999999999	0	-5.493521677713844	-3.944030990367132	-7.113425006641745	-2.95617984632868	-0.05159507159953548	0	0	0	-13.4565212195637	-3.461274224426794	-3.709032017599861	-8.243612186606288	-0.1438781749138089	0	0	0	0	0	0	40.7339536272718	-40.7339536272718	4.915205269638226	83.81248021037443	85.08479500126546	0	0	40.7339536272718	-40.7339536272718	4.915205269638226	83.81248021037443	85.0847950012496	0	0
17.93999999999971	4.541513840019094	3.726109595795034	92.13178932109221	0	0.9399999999999999	0	-5.176731150030531	-4.111605418738309	-7.220297312551776	-1.74973394117202	-0.03053861830734852	0	0	0	-13.74666571336539	-3.297298169740594	-4.083264569320987	-8.63803585389563	-0.1507621665557986	0	0	0	0	0	0	40.73497977082945	-40.73497977082945	4.915246217086159	83.81305375343139	85.08475405381932	0	0	40.73497977082945	-40.73497977082945	4.915246217086159	83.81305375343139	85.08475405380348	0	0
